/* XPM */
static char *_334ec93399546219278e64f473f9f2a[] = {
/* columns rows colors chars-per-pixel */
"16 16 193 2 ",
"   c #F3943C",
".  c #F4943C",
"X  c #F7AD68",
"o  c #F6AD69",
"O  c #F6AF6D",
"+  c #F7B475",
"@  c #F3B67E",
"#  c #F8B97E",
"$  c #808182",
"%  c #8E8F8E",
"&  c #8F8F90",
"*  c #8F8F91",
"=  c #909091",
"-  c #919192",
";  c #919294",
":  c #949596",
">  c #959596",
",  c #969797",
"<  c #9A9A9B",
"1  c #9A9C9E",
"2  c #9C9C9D",
"3  c #9C9D9E",
"4  c #9C9D9F",
"5  c #9F9FA0",
"6  c #A0A0A0",
"7  c #A0A0A1",
"8  c #A1A1A2",
"9  c #A2A4A6",
"0  c #A4A5A5",
"q  c #A4A5A6",
"w  c #A5A5A6",
"e  c #A7A8A8",
"r  c #A7A8AA",
"t  c #A7A9AC",
"y  c #A9A9AA",
"u  c #A8A9AB",
"i  c #ABAAAB",
"p  c #A9AAAC",
"a  c #ABABAC",
"s  c #AAABAD",
"d  c #ACABAC",
"f  c #A9ACAE",
"g  c #ABADAF",
"h  c #ACACAC",
"j  c #ACACAD",
"k  c #ACACAF",
"l  c #ACADAF",
"z  c #AFAFAE",
"x  c #AFAFAF",
"c  c #AEAEB0",
"v  c #B0B0B1",
"b  c #B1B1B1",
"n  c #B0B0B2",
"m  c #B2B2B2",
"M  c #B5B6B8",
"N  c #B5B7B8",
"B  c #B5B7B9",
"V  c #B7B8B9",
"C  c #B6B8BA",
"Z  c #B7B8BA",
"A  c #B8B9BB",
"S  c #B8BABC",
"D  c #B9BABC",
"F  c #BBBBBC",
"G  c #BABBBD",
"H  c #BABBBE",
"J  c #BCBDBF",
"K  c #BEBFBF",
"L  c #F6C08B",
"P  c #F4C395",
"I  c #F8C290",
"U  c #F9C392",
"Y  c #F8C494",
"T  c #F7C99E",
"R  c #F8CA9F",
"E  c #F5CAA1",
"W  c #F9CBA0",
"Q  c #FBD8B7",
"!  c #FBDBBD",
"~  c #BEBEC0",
"^  c #BCC0C3",
"/  c #BEC0C2",
"(  c #BFC0C2",
")  c #BFC1C3",
"_  c gray76",
"`  c #C1C3C4",
"'  c #C2C3C4",
"]  c #C3C3C4",
"[  c #C2C3C5",
"{  c #C2C3C6",
"}  c #C5C5C5",
"|  c #C6C6C6",
" . c #C6C6C7",
".. c #C6C7C9",
"X. c #C8C9CA",
"o. c #CAC9CB",
"O. c #C9CACB",
"+. c #CACACB",
"@. c #C9CACC",
"#. c #C9CBCD",
"$. c #CBCACC",
"%. c #CBCBCC",
"&. c #CACBCD",
"*. c #CBCCCD",
"=. c #CBCDCE",
"-. c #CCCDCF",
";. c #CDCECF",
":. c #CDCED0",
">. c #CFCFD0",
",. c #D1D1D2",
"<. c #D2D3D4",
"1. c #D2D3D5",
"2. c #D3D4D5",
"3. c #D4D5D6",
"4. c #D4D5D7",
"5. c #D5D6D8",
"6. c #D6D8DB",
"7. c #D8D8D8",
"8. c #D9DAD9",
"9. c #D8D8DA",
"0. c #D8D9DA",
"q. c #D8D9DB",
"w. c #D9DADB",
"e. c #D9DADC",
"r. c #DBDBDC",
"t. c #DBDCDD",
"y. c #DBDCDE",
"u. c #DCDCDD",
"i. c #DCDDDD",
"p. c #DDDEDF",
"a. c gray87",
"s. c #FADFC5",
"d. c #F5E1CE",
"f. c #EEE4DC",
"g. c #F0E0D2",
"h. c #F6E5D5",
"j. c #FCE7D3",
"k. c #DADCE0",
"l. c #DDDEE0",
"z. c #DEDFE1",
"x. c #DFDFE1",
"c. c #E1E1E1",
"v. c #E0E1E2",
"b. c #E2E2E3",
"n. c #E3E3E4",
"m. c #E3E4E4",
"M. c #E3E4E5",
"N. c #E1E4E6",
"B. c #E6E6E7",
"V. c #E7E7E7",
"C. c #E1E4E8",
"Z. c #E2E5E8",
"A. c #E5E6E8",
"S. c #E7E8E9",
"D. c #E5E9ED",
"F. c #E8E8E9",
"G. c #E8E9EA",
"H. c #EBECED",
"J. c #ECECEE",
"K. c #EEEEEF",
"L. c #FBF0E4",
"P. c #E8EDF3",
"I. c #EEEFF0",
"U. c #EBF1F8",
"Y. c #EEF3F8",
"T. c #EFF5FB",
"R. c #F0F0F1",
"E. c gray95",
"W. c #F2F2F3",
"Q. c #F3F4F5",
"!. c #F1F4F7",
"~. c #F4F4F4",
"^. c #F4F4F5",
"/. c gray96",
"(. c #F5F5F6",
"). c #F5F6F7",
"_. c #F6F7F7",
"`. c #F0F6FB",
"'. c #F7F7F8",
"]. c #F8F7F8",
"[. c #F6FBFF",
"{. c #F8F9F9",
"}. c #F9FAFA",
"|. c gray98",
" X c #FAFAFB",
".X c #FAFBFB",
"XX c #F9FAFC",
"oX c #FBFFFF",
"OX c #FCFEFF",
"+X c #FDFFFF",
"@X c #FEFEFE",
"#X c gray100",
"$X c None",
/* pixels */
"$X$X$X$X$X4.5.<.*.` N $X$X$X$X$X",
"$X$X$Xy.S.G.b.0.1.:.*.` p $X$X$X",
"$X$XM.).J.O.,.> $ u C ( O.C $X$X",
"$Xi..X).K m w w - 8 < A ~ -.G $X",
"$X).).B._ v  .J.B. .< O.N ..-.$X",
">.{.W.d z Q.@X{.Q.U.k.a & m e.K ",
"r.W.7.% N.j.! s.L P d.( 5 a l.&.",
"8.B.b.i.T.R U Q + o R U.O.b.l.1.",
"&.1.B.'.T.E o Y I O W [.@X).m.8.",
"N &.&.w 6.f.@     # L.{.b.W.J.y.",
"p ) ~ = d Z.P.g.h.oX@X8.z B.{.4.",
"$Xk G G & n 5.C.D.b. .> i.{.'.$X",
"$Xu t N : 5 5 a z w u  .).@Xx.$X",
"$X$X5 9 N G k c < A O.J.{.G.$X$X",
"$X$X$X; 1 f G ` O.1.e.l.i.$X$X$X",
"$X$X$X$X$X1 9 z C ` *.$X$X$X$X$X"
};
