/* XPM */
static char *_395adff6d3d4e78d010ab502a19e6a4[] = {
/* columns rows colors chars-per-pixel */
"32 32 94 2 ",
"   c #474847",
".  c #565757",
"X  c #5A5B5A",
"o  c #5F6060",
"O  c #646565",
"+  c #676867",
"@  c #6B6C6B",
"#  c #6F7070",
"$  c #737373",
"%  c #7A7A7B",
"&  c #F38723",
"*  c #F38B2C",
"=  c #F38E31",
"-  c #F39137",
";  c #F3943C",
":  c #F39640",
">  c #F49945",
",  c #F39B49",
"<  c #F4A255",
"1  c #F5A55B",
"2  c #F6A962",
"3  c #F4AD6A",
"4  c #F7B06C",
"5  c #F6B375",
"6  c #F7B578",
"7  c #838383",
"8  c #878887",
"9  c #878788",
"0  c #8B8C8D",
"q  c #8F8F90",
"w  c #8E9092",
"e  c #939394",
"r  c #979897",
"t  c #969799",
"y  c #9B9B9C",
"u  c #9D9EA0",
"i  c #9FA1A3",
"p  c #A3A4A5",
"a  c #A6A7A8",
"s  c #A7A8AA",
"d  c #AAABAC",
"f  c #ADAEB0",
"g  c #AFB1B3",
"h  c #B3B4B5",
"j  c #B6B7B9",
"k  c #B7B8BA",
"l  c #BABBBD",
"z  c #F6BB84",
"x  c #F9BF86",
"c  c #F6C597",
"v  c #F8C595",
"b  c #F3C59B",
"n  c #F9CA9E",
"m  c #F3C7A0",
"M  c #F5CBA5",
"N  c #FACDA2",
"B  c #F3D5B9",
"V  c #BDBEC1",
"C  c #BFC1C2",
"Z  c #C3C3C5",
"A  c #C6C7C9",
"S  c #C7C9CA",
"D  c #CACBCD",
"F  c #CDCED0",
"G  c #D0CFD2",
"H  c #CFD0D1",
"J  c #D3D4D5",
"K  c #D6D6D8",
"L  c #D8D7D9",
"P  c #D7D8D9",
"I  c #DBDBDD",
"U  c #FBDEC3",
"Y  c #FCE1C8",
"T  c #FBE8D8",
"R  c #DEDFE0",
"E  c #DFE0E1",
"W  c #E3E3E4",
"Q  c #E6E7E8",
"!  c #E7E8EA",
"~  c #EBEBEC",
"^  c #F2EBE5",
"/  c #F1EEEB",
"(  c #FEF1E6",
")  c #FCF3EA",
"_  c #EEEFF0",
"`  c #EFF0F1",
"'  c #EEF4FA",
"]  c #F3F4F4",
"[  c #F8F7F7",
"{  c #FEFAF7",
"}  c #F5F6F9",
"|  c #F6F9FC",
" . c #FDFDFD",
".. c None",
/* pixels */
"........................F F F S Z C l k ........................",
"..................J I R R R I I P J H S C j f ..................",
"................E Q Q W W E I P K J J F H D Z h p ..............",
"............I _ ` ~ ! W I P P P H F S S S D D D V p ............",
"..........E } ] / ! W Q I K k q r y h l l C Z S F A s ..........",
"........R  . .] Q _ ! u V ~ 0 @ 9 # # Z k d j V A F F f ........",
"......K  . .] W / Z % q % ~ 7 @ 7 . q K r % l h l A J D d ......",
"...... . .] W  .F @ Q { r u p K Q 7 h l @ l Z k h l S K A d ....",
"....W  .[ Q _ { ] 7 W f % Z _ W W L L e # K D Z C l C G I k ....",
"..Z  . .~ _ ` 0 ] D + p Q _ Q Q W W I I y # D L F l l A I K f ..",
"..K  .] W { { V # ~ { ] ` [ | [ ] ` ~ W R Z D a # X j A J W l ..",
".._  .~ ~ [ + q O C [ [  . . . .| | ] ' ! W D O D r q G D W J ..",
"l  . .I ]  .s d { [ ] { U ) { v z M ^ B / Q E % I K @ J S R E g ",
"l  .] I W e r   K [  .6 = ( { 1 x 2 z > 3 ] _ a 7 y % R H I Q k ",
"Z  .~ K / I J J ~ ]  .2 - ( { 4 n 4 6 > < [ _ ~ p y W W H I ~ V ",
"l  .R K _ ] [  .] _  .2 - )  ., ; z T > 1 [ ] _  . .` ~ P I ` A ",
"k ` L G Q ~ / ] ~ _  .2 - )  .3 1  .{ ; 1 { ] ] | ] ] _ I I ] F ",
"h E F D R W Q ] ! ! | 1 * 5 U 2 1 Y 6 * 1  .] ] { [  .] I W ] D ",
"s J S Z J R R Z ~ R ` m > & = - - = & > n  ._  . . .{ [ W ~ ] A ",
"u S D V G l # @ A W W ' ^ c , = * > v (  . .`  .f K  .| W ] ] Z ",
"..k A V Z k y 7 0 I L W _ ' ^ b c )  . . .~ {  .F O D } ! { ` ..",
"..i Z V l A G 7 + H E J R ! _ ' | |  .] ~  .Q q p J [ ! ]  .E ..",
"..u h V k l C C V k d L J L W W ! ! W _  .I e 8 l { ] ~  . .S ..",
"....t k h k k j % @ % F J I I I Q ~ ] R y 7 y a J ] ~  . .~ ....",
"....p p g g k g i $ % A 9 Z k Z s y a % I W 9 E [ ~ |  .{ H ....",
"......w p f g k k p t D i O a 9 e Z A q g w h ] ~ ]  . .R ......",
"........w i s f k j j k y t P w 0 d r Z q J ` ! ] {  .Q ........",
"..........0 u p s j V k j j V h 0 r h I W W ! ` [ | ! ..........",
"............0 t p p f k Z A A F K K I L I R E ! ~ E ............",
"..............e w y i s f h l Z A D F F H H K I K ..............",
"..................t t y i s f h j l C A D D J ..................",
"........................p p a d h j C Z ........................"
};
