/* XPM */
static char *b3bb6b6a3a91453e8df8e54edb5c2659[] = {
/* columns rows colors chars-per-pixel */
"64 64 132 2 ",
"   c #0C0D0C",
".  c #0F100F",
"X  c #1C1D1C",
"o  c #232423",
"O  c #272827",
"+  c #2B2C2B",
"@  c #333433",
"#  c #373837",
"$  c #3A3B3A",
"%  c #434443",
"&  c #474847",
"*  c #474848",
"=  c #4C4C4C",
"-  c #4F504F",
";  c #535454",
":  c #575758",
">  c #575858",
",  c #5B5B5B",
"<  c #5F605F",
"1  c #60605F",
"2  c #636464",
"3  c #676867",
"4  c #676868",
"5  c #6B6B6B",
"6  c #6F6F70",
"7  c #737474",
"8  c #777877",
"9  c #7C7C7D",
"0  c #F38825",
"q  c #F38C2D",
"w  c #F38E32",
"e  c #F39136",
"r  c #F39239",
"t  c #F39741",
"y  c #F49944",
"u  c #F49C4B",
"i  c #F5A256",
"p  c #F5A55B",
"a  c #F6A85C",
"s  c #F3A761",
"d  c #F6AB65",
"f  c #F5AE6C",
"g  c #F6B06F",
"h  c #F5B273",
"j  c #F8B572",
"k  c #F6B67B",
"l  c #F7B97F",
"z  c #F8BB7D",
"x  c #7E7F80",
"c  c #7F8082",
"v  c #838485",
"b  c #868788",
"n  c #86888A",
"m  c #8B8B8C",
"M  c #8D8E90",
"N  c #8F9092",
"B  c #939495",
"V  c #969799",
"C  c #97989A",
"Z  c #9A9B9D",
"A  c #9D9EA1",
"S  c #9EA0A2",
"D  c #A2A3A5",
"F  c #A5A7A9",
"G  c #A7A8AA",
"H  c #AAABAD",
"J  c #ADAFB1",
"K  c #AFB0B3",
"L  c #B2B3B5",
"P  c #B7B8B7",
"I  c #B5B6B9",
"U  c #B7B8BA",
"Y  c #BABBBD",
"T  c #F6BB85",
"R  c #F8BC84",
"E  c #F8BE88",
"W  c #F8C08D",
"Q  c #F3C396",
"!  c #F9C594",
"~  c #F3C498",
"^  c #FACC9C",
"/  c #FACEA3",
"(  c #FBD2AB",
")  c #FAD5B3",
"_  c #FCD9B5",
"`  c #F2D4B8",
"'  c #FBDABC",
"]  c #BEBEC1",
"[  c #BFC0C2",
"{  c #C2C3C5",
"}  c #C6C6C8",
"|  c #C8C7C9",
" . c #C7C8CA",
".. c #CACBCD",
"X. c #CECFD0",
"o. c #CFD0D2",
"O. c #D2D3D4",
"+. c #D6D7D8",
"@. c #D8D7D9",
"#. c #D7D8DA",
"$. c #DBDBDC",
"%. c #F5DAC1",
"&. c #FADEC4",
"*. c #F4DEC9",
"=. c #DFE0DF",
"-. c #FCE3CC",
";. c #F5E3D3",
":. c #FCE8D5",
">. c #F9E7D8",
",. c #FDECDB",
"<. c #DEDFE0",
"1. c #E0DFE1",
"2. c #DFE0E1",
"3. c #E3E3E4",
"4. c #E6E7E8",
"5. c #E8E7E9",
"6. c #E7E8E9",
"7. c #EBEBEC",
"8. c #F6ECE4",
"9. c #FBEEE2",
"0. c #FDF1E7",
"q. c #F5F1ED",
"w. c #FCF5EF",
"e. c #EEEFF0",
"r. c #EFF0F1",
"t. c #F3F3F4",
"y. c #FEF7F1",
"u. c #F4F6F9",
"i. c #F8F7F8",
"p. c #F6F9FB",
"a. c #FDFDFD",
"s. c None",
/* pixels */
"s.s.s.s.s.s.s.s.s.s.s.s.s.s.s.s.s.s.s.s.s.s.s.s.s.s.s.{ [ [ [ ] ] Y U I I s.s.s.s.s.s.s.s.s.s.s.s.s.s.s.s.s.s.s.s.s.s.s.s.s.s.s.",
"s.s.s.s.s.s.s.s.s.s.s.s.s.s.s.s.s.s.s.s.s.s.s...o.o.O.O.+.+.+.o.X.X... .{ Y U K H s.s.s.s.s.s.s.s.s.s.s.s.s.s.s.s.s.s.s.s.s.s.s.",
"s.s.s.s.s.s.s.s.s.s.s.s.s.s.s.s.s.s.s.s.o.O.$.2.2.2.2.$.#.#.#.+.O.o.o.o.o.....} ] ] H D s.s.s.s.s.s.s.s.s.s.s.s.s.s.s.s.s.s.s.s.",
"s.s.s.s.s.s.s.s.s.s.s.s.s.s.s.s.s.s.+.$.2.3.3.3.2.2.2.2.<.<.#.#.#.+.+.O.O.X.......} } ] K D s.s.s.s.s.s.s.s.s.s.s.s.s.s.s.s.s.s.",
"s.s.s.s.s.s.s.s.s.s.s.s.s.s.s.s.O.<.3.3.3.3.3.3.2.2.2.2.2.2.<.#.$.#.#.+.O.O.X.......} } } ] J Z s.s.s.s.s.s.s.s.s.s.s.s.s.s.s.s.",
"s.s.s.s.s.s.s.s.s.s.s.s.s.s.O.$.6.e.6.6.4.4.3.3.3.3.2.2.$.#.+.O.o.X.X.X.o.O.O.O.X.X.....| | } ] F V s.s.s.s.s.s.s.s.s.s.s.s.s.s.",
"s.s.s.s.s.s.s.s.s.s.s.s.s.+.4.r.7.7.7.7.6.4.3.3.3.$.$.#.#.#.#.+.+.O.o.X... .{ } ..X.X.X. .} | | } L C s.s.s.s.s.s.s.s.s.s.s.s.s.",
"s.s.s.s.s.s.s.s.s.s.s.s.#.r.t.r.t.7.7.7.7.4.4.2.=.$.$.+.O.o.X. .} } } } }  .X...} ] { ..X.X...| } } ] A B s.s.s.s.s.s.s.s.s.s.s.",
"s.s.s.s.s.s.s.s.s.s.s.$.i.u.t.t.t.r.r.7.4.2.$.$.@.+.O.X...O.O.X.X.} { ] U L I Y { | | ] ] | X..... . .{ D C s.s.s.s.s.s.s.s.s.s.",
"s.s.s.s.s.s.s.s.s...$.i.p.u.t.t.q.r.7.3.$.2.1.=.$.$.+.O.+.v > 2 6 9 n C P ] I L J K ] } { ] { X.X.........F B s.s.s.s.s.s.s.s.s.",
"s.s.s.s.s.s.s.s.s.2.a.a.i.i.i.t.r.7.$.1.4.5.r.3.3.1.$.$.$.& - 3 ; & $ + % K { U I L J J ] { ] ]  .o.........F C s.s.s.s.s.s.s.s.",
"s.s.s.s.s.s.s.s.#.a.p.a.p.i.t.t.6.$.4.r.u.r.D $ 6 5.3.1.@.$ Z =.@.$.+.Y O M | ] Y Y L K H K ] ] U { O.........D D s.s.s.s.s.s.s.",
"s.s.s.s.s.s.s...a.a.a.a.a.r.r.3.$.t.a.a.Y = @ 7 + J q.3.+.$ O $ % - 4 2 O J ..{ { K $ Z ] K J ] { Y { O.O.......C s.s.s.s.s.s.s.",
"s.s.s.s.s.s.{ u.a.a.a.a.r.q.3.3.i.a.+.1 O 7 $.a.9 % 5.7...@ V D M x + # A O.......= % U ] I L J U { Y [ O.O.o.o.} B s.s.s.s.s.s.",
"s.s.s.s.s.Y 4.a.a.a.a.t.t.3.3.p.a.Y + 1 O.a.i.r.4.$ C a.Y O +.7.4.e.C # X.+.X.+.8 + ] | ] ] I L K U { Y { #.O.O.O.Y M s.s.s.s.s.",
"s.s.s.s.s.X.a.a.a.a.t.e.3.=.a.p.a.G + r.a.t.t.t.a.v + 3.O.8 =.4.1.3.3.= 5 1.$.D O S O.| { { ] ] U L U } U ..+.O.O.O.F s.s.s.s.s.",
"s.s.s.s.P i.a.a.a.a.5.7.@.a.a.a.a.u.% b a.i.a.t.B + 1 7.r.t.7.5.5.3.4...L 1...+ 1 3.O...| | { { ] Y I Y | Y O.@.O.+...B s.s.s.s.",
"s.s.s.s.+.a.a.a.a.5.t.+.a.a.a.a.a.a.Y + 6.a.L $ $ G i.i.r.7.3.3.$.1.1.4.5.3.$.9 + v $.+...| | | { [ Y U Y { [ $.+.+.#.L D s.s.s.",
"s.s.s.L a.a.a.a.t.r.$.7.a.@.- =.a.a.a., = ; + M t.a.r.3.#.#.$.$.$.@.O.O.+.@.1.5.D + ; | +.X...| ..{ { [ Y { [ ..$.@.$.O.V s.s.s.",
"s.s.s.O.a.a.a.a.5.5.=.a.a.a.8 # $.a.a.$.% 7 6.a.i.$.$.5.r.t.t.q.t.t.7.4.3.+.O.$.8.| & @ Y $.O.X.X.O.} ] { Y | { $.$.$.$.I s.s.s.",
"s.s.H t.a.a.a.t.7.@.i.a.a.a.a.7 @ @.a.a.a.a.a.5.@.r.a.i.i.u.t.t.e.e.7.7.7.7.4.O.O.4.1.b Y $.=.$.Y b $ ; ..{ { { ..2.$.$.o.V s.s.",
"s.s.U a.a.a.a.4.6.$.a.a.a.a.a.a.9 # $.a.a.a.3.3.a.a.i.i.i.i.t.u.t.t.t.t.7.7.7.7.$.X.3.7.3.+.F ; + $ 6 + G X.[ | { 2.2.$.2.F s.s.",
"s.s.@.a.a.a.t.5.#.t.a.i.7 ; - ; ; . - a.a.3.4.a.a.a.i.a.i.i.p.u.u.t.t.t.t.7.7.7.7.3.X.3.5.L X 2 K O.3.= 7 @.| {  .O.3.<.3.{ C s.",
"s.D t.a.a.a.3.4.@.a.a.7.@ & D M b x H a.7.3.a.a.a.a.a.a.i.a.a.p.p.p.i.t.t.t.t.e.7.7.1.O.5.+.# L e.$.3.m $ X.O.{ ....3.2.3.#.C s.",
"s.H a.a.a.a.3.$.=.a.a.a.| + ] a.a.a.a.i.$.a.a.a.a.a.y.a.a.a.,.>.>.>.8.p.p.r.q.u.r.r.e.#.$.t.3 < 7.$.1...@ Z $. . ...2.2.2.3.F s.",
"s.] a.a.a.t.3.O.r.a.a.a.a.F o X.a.a.a.3.i.a.a.y./ p ,.a.a.a.a w e e r h q.9.p ~ 7.t.r.7.O.t.U + X.5.=.5.- 5 3.O. ...#.3.4.4.U s.",
"s.O.a.a.a.6.$.+.i.7...#.=.r.7 @ $.a.u.=.a.a.) y q e ,.a.a.a.p q j ^ j 0 k 8.r 0 t ~ u.t.2.2.7.# b a.t.3.$ 7 4.$...o.o.6.3.4...Z ",
"Z 2.a.a.a.=.$.+.a.K $ $ $ @ @   M a.5.t.a.a.R 0 e r ,.a.a.a.i d :.R _ d e %.u r q d u.t.r.+.a.B o m Z & #  .3.2...o.X.6.4.4.O.Z ",
"C 4.a.u.a.+.#.+.i.t.7.3.+.{ P L 7.a.=.a.a.a.E q e r ,.a.a.a.i k ,.d ( z q ` u e q g p.u.i.@.7.u.m # $ 8 O.7.3.2.o.o.X.6.4.4.$.Z ",
"B 5.a.i.i.O.O.+.t.t.u.a.a.a.a.a.a.t.$.a.a.a.E q e r ,.a.a.a.p y / ^ ^ y u ,.y e q g p.p.i.4.3.t.a.5.5.i.7.7.4.6.+.o.o.6.4.6.2.S ",
"B 7.u.i.t.O.X.#.t.r.t.q.q.u.i.i.a.7.4.a.a.a.E q e r ,.a.a.a.a q y a e w ' w.t e w g a.i.i.e.3.i.t.t.t.t.7.7.7.7.$.o.O.2.7.7.6.D ",
"M 5.t.t.5.X...#.7.7.e.r.t.t.t.t.i.7.4.a.a.a.E q e r ,.a.a.a.a w w e ! :.a.0.t w q g a.a.i.r.3.i.t.t.t.t.t.7.7.7.2.o.+.2.7.7.7.F ",
"M 6.r.7.3.X...+.5.5.7.e.e.q.t.t.i.5.4.p.p.a.T q e r ,.a.a.a.i q q y a.a.a.0.y e w g a.a.a.t.1.a.u.u.t.t.t.t.r.r.3.O.$.2.7.7.7.H ",
"M 2.7.3.2. . .o.5.5.5.5.7.7.e.t.t.6.3.p.p.p.T q e r 0.a.a.a.~ k l W a.a.a.y.r e q g a.a.a.t.4.a.i.i.y.u.t.t.r.t.3.O.$.3.7.7.7.J ",
"n $.3.$.<.[  ...1.1.3.5.5.5.7.q.t.6.$.p.i.p.T q r e h -.a.a.k i p f a.a.:.R r r q g a.a.a.e.5.a.a.i.p.i.i.t.t.y.3.#.$.4.7.t.7.J ",
"n O.<.o.#.[ ..} <.<.1.3.3.5.5.7.7.5.+.t.t.p.T q e r w w j &.i q q u -.l e q r r q g a.a.a.3.r.a.a.a.i.a.i.p.i.i.2.$.$.r.7.7.7.G ",
"M  .#.o.+.]  .{ @.@.$.<.1.3.q.7.7.7.#.7.r.u.~ q w e e e q w r r r r e q e r e w 0 R a.a.a.$.a.a.i.p.a.a.i.i.i.p.=.2.$.t.r.t.6.F ",
"s.U O.X.O.[ } [ +.+.@.@.1.5.F Y 7.7.=.$.e.e.r.` d w q e r e r r r e r r e q q p ) a.a.a.u.3.a.a.a.a.a.a.i.a.i.a.=.4.2.i.t.u.2.H ",
"s.S o.X.X.} { [ ..O.+.1.Y 2 # & 3.6.3.O.6.e.e.u.t.%.f e q r r r r e e q e a ' a.a.a.a.a.3.t.a.a.L +.a.a.a.a.a.i.$.4.7.i.t.p.X.s.",
"s.n }  .....Y { ] O...6 # @ ..1 x 7.3.@.#.7.6.7.e.t.u.*.h r q r r q w d &.a.a.a.a.a.a.t.3.a.a.a.Z $ b q.a.a.a.5.=.4.u.i.i.p.[ s.",
"s.v Y } } X.I } Y X.U 7 | 6 8 | $ | 3.=.X.1.5.5.7.e.e.u.u.;.k r e d *.a.a.a.a.a.a.a.a.$.i.a.a.a.a.7.8 & I a.a.3.4.4.a.u.i.t.L s.",
"s.N D } } } ] ] Y [ ..O.O.{ $ ] x 3 3.$.=...1.5.5.5.7.7.e.u.u.;.*.a.p.a.u.a.a.a.a.a.$.t.a.a.a.a.a.$.C @ 8 a.a.$.7.r.a.a.a.3.L s.",
"s.s.m [ [ [ [ I { U { | | @.x : Y # ..$.$.$...1.5.5.5.5.7.e.e.u.u.u.u.u.i.a.a.a.a.$.7.a.a.a.7.Z > & v +.a.a.5.4.7.a.a.a.a.X.s.s.",
"s.s.c K [ [ [ L [ U ] [ | | | - # 3 +.+.+.$.#...@.3.5.5.5.7.7.e.e.t.t.t.t.a.a.t.$.e.a.a.a.M @ x | t.a.a.a.a.2.r.7.a.a.a.a.U s.s.",
"s.s.s.B ] ] ] ] L [ I ] ] { | ] G X.O.O.$.$.$.$.X.X.$.1.5.5.5.e.e.e.t.t.t.e.$.$.t.a.a.t.F Y & 8 7.a.a.a.a.4.5.7.a.a.a.a.3.s.s.s.",
"s.s.s.x K ] I ] L Y Y I Y ] { | X.O...D , A $.O.$.@.X.X.+.<.1.1.3.5.4.1.+.$.5.i.a.a.7.6.1 9 t.m $ B a.a.a.1.t.t.a.a.a.a.{ s.s.s.",
"s.s.s.A N U K U U H [ I P Y Y { Y m ; , ; 7 $.O.O.@.<.@.+.O.+.+.+.+.$.=.5.q.t.a.u.Z $ & q., 7 a.$.Z a.a.3.r.r.a.a.a.a.5.L s.s.s.",
"s.s.s.s.x G L K I L L { L P Y D & O ; @.7 m O.| X.+.O.@.@.<.1.1.3.5.6.e.e.e.a.Y * , X.5 b a., 6 a.a.a.5.7.r.a.a.a.a.a.} s.s.s.s.",
"s.s.s.s.s.b K J K I H L [ J I J F F * < ; S o.U ; [ #.O.$.1.1.3.7.7.6.1.3.6.8 % A u.a.2.% #.t.J i.a.7.6.u.t.a.a.a.a.3.s.s.s.s.s.",
"s.s.s.s.s.b B J J K I G ] ] K K U ] ] , + ] }  .x = X.#.I 8 Y H 7 1 > = % L @ { a.r.u.a.4 4 a.p.a.7.3.t.t.a.a.a.a.u.{ s.s.s.s.s.",
"s.s.s.s.s.s.x A G G J K F ] ] K J K ] G * I ] ] X.7 ; : ; 8 ] % 3 B D | B ..b 2 t.i.=.6 & L p.u.5.3.t.t.a.a.a.a.a.X.s.s.s.s.s.s.",
"s.s.s.s.s.s.s.x F F G J J F Y [ I H K H V ] ] ] } L # C  .@.O.- K 4.=.1.7.7.$.% D V $ 8 =.p.r.6.3.t.r.a.a.a.a.a.$.s.s.s.s.s.s.s.",
"s.s.s.s.s.s.s.C x F D G G J F K [ ] K J I L L ] { 9 : O.}  .O.: M 3.=.3.Y C 8.H O , { t.r.6.2.6.r.t.a.a.a.a.a.4. .s.s.s.s.s.s.s.",
"s.s.s.s.s.s.s.s.M n S D D G H H K [ [ U J J K L ] x m { [ } X.2 ; C 9 7 $ , 3.$.{ 3.5.3.2.2.6.r.r.a.a.a.a.a.7.} s.s.s.s.s.s.s.s.",
"s.s.s.s.s.s.s.s.s.x n S S D F G G H ] [ [ I K J K I ] Y ] ] | Z & : 3 9 Z | +.+.1.$.=.1.6.6.r.r.t.p.a.p.a.7...s.s.s.s.s.s.s.s.s.",
"s.s.s.s.s.s.s.s.s.s.n c A S S D F G G J ]  . .[ I K L L I Y ] { | ..O.O.O.X.X.+.@.1.=.3.6.6.e.r.t.t.u.i.4...s.s.s.s.s.s.s.s.s.s.",
"s.s.s.s.s.s.s.s.s.s.s.m c Z S S S F F H H K ] [ X.X. .[ [ [ [ [ { | ..X.O.+.@.$.2.2.3.3.3.6.6.e.r.t.t.<.s.s.s.s.s.s.s.s.s.s.s.s.",
"s.s.s.s.s.s.s.s.s.s.s.s.s.x N Z A A S F F H J K U [  ...O.+.#.#.$.@.#.$.@.$.$.$.<.O.#.#.2.2.6.6.7.4.+.s.s.s.s.s.s.s.s.s.s.s.s.s.",
"s.s.s.s.s.s.s.s.s.s.s.s.s.s.v n V Z A S D F G H J K I U ] [ [  .....X.X.o.o.O.X.X.X.o.O.#.#.2.2.<.o.s.s.s.s.s.s.s.s.s.s.s.s.s.s.",
"s.s.s.s.s.s.s.s.s.s.s.s.s.s.s.s.b M C A S S D G G J K K L U U ] ] ] { { }  . ...X.X.o.o.o.O.#.O.s.s.s.s.s.s.s.s.s.s.s.s.s.s.s.s.",
"s.s.s.s.s.s.s.s.s.s.s.s.s.s.s.s.s.V m N V A S A D F G J J K L U U ] ] [ { } } } ....X.o.o.O.s.s.s.s.s.s.s.s.s.s.s.s.s.s.s.s.s.s.",
"s.s.s.s.s.s.s.s.s.s.s.s.s.s.s.s.s.s.s.s.N B C A S D D G H J K L L U U ] [ [ [ }  .....X.s.s.s.s.s.s.s.s.s.s.s.s.s.s.s.s.s.s.s.s.",
"s.s.s.s.s.s.s.s.s.s.s.s.s.s.s.s.s.s.s.s.s.s.Z C Z A S S F G H J K L I U Y [ [ }  ...s.s.s.s.s.s.s.s.s.s.s.s.s.s.s.s.s.s.s.s.s.s.",
"s.s.s.s.s.s.s.s.s.s.s.s.s.s.s.s.s.s.s.s.s.s.s.s.s.s.G G F G H J K L I Y [ { s.s.s.s.s.s.s.s.s.s.s.s.s.s.s.s.s.s.s.s.s.s.s.s.s.s."
};
